<?xml version="1.0" encoding="UTF-8" ?>
<!DOCTYPE svg PUBLIC "-//W3C//DTD SVG 1.1//EN" "http://www.w3.org/Graphics/SVG/1.1/DTD/svg11.dtd">
<svg width="1000pt" height="1000pt" viewBox="0 0 1000 1000" version="1.1" xmlns="http://www.w3.org/2000/svg">
<g id="#e5e5e5ff">
<path fill="#e5e5e5" opacity="1.00" d=" M 491.50 0.00 L 509.49 0.00 C 556.60 1.08 603.59 8.52 648.59 22.58 C 727.39 47.03 799.95 91.37 857.52 150.49 C 910.12 204.11 950.26 269.84 974.07 341.08 C 990.37 389.50 998.98 440.44 1000.00 491.50 L 1000.00 509.49 C 998.86 559.43 990.55 609.23 974.82 656.66 C 949.93 732.36 906.59 801.92 849.52 857.52 C 791.36 914.59 718.92 956.93 640.72 979.79 C 598.13 992.35 553.87 998.96 509.49 1000.00 L 491.50 1000.00 C 435.21 998.90 379.10 988.49 326.31 968.87 C 256.77 943.17 193.09 901.74 141.49 848.51 C 85.91 791.51 44.35 720.95 21.41 644.71 C 10.38 608.43 3.78 570.87 1.12 533.06 C 1.15 525.84 0.24 518.68 0.00 511.47 L 0.00 490.51 C 0.99 460.16 3.90 429.81 10.10 400.05 C 26.39 319.65 62.93 243.47 115.43 180.45 C 155.92 131.67 205.80 90.71 261.54 60.52 C 331.85 22.23 411.48 1.45 491.50 0.00 M 495.28 270.98 C 490.67 271.72 485.92 272.32 481.76 274.58 C 475.33 277.44 470.60 283.10 467.45 289.25 C 465.39 294.72 464.78 300.83 466.05 306.56 C 467.52 314.20 469.74 321.67 471.50 329.25 C 487.74 395.23 504.30 461.14 520.56 527.12 C 520.97 529.78 521.23 533.06 519.21 535.16 C 517.37 536.32 515.26 537.24 513.06 537.26 C 497.71 537.33 482.35 537.35 467.01 537.57 C 460.62 537.69 454.19 537.11 447.86 538.21 C 439.36 538.54 430.81 537.86 422.33 538.77 C 413.83 540.65 406.13 546.25 402.26 554.12 C 397.20 563.73 397.81 575.67 402.69 585.23 C 405.08 590.24 409.41 593.94 413.68 597.32 C 420.73 602.23 429.66 602.99 438.00 602.75 C 478.00 602.40 518.00 602.55 558.00 602.53 C 564.19 602.51 570.50 602.74 576.55 601.24 C 580.96 599.37 585.50 597.40 588.88 593.89 C 597.05 586.55 600.10 574.51 597.59 563.97 C 586.49 518.01 574.44 472.27 563.45 426.28 C 552.38 382.29 541.34 338.30 530.42 294.27 C 526.71 279.20 510.57 268.54 495.28 270.98 M 313.46 302.83 C 306.50 304.13 299.45 306.32 293.88 310.87 C 285.84 316.30 280.57 324.91 277.29 333.88 C 272.54 348.53 276.77 365.51 287.29 376.64 C 293.57 383.65 302.31 388.22 311.40 390.34 C 319.07 390.97 327.12 391.41 334.42 388.48 C 338.76 386.64 343.05 384.57 346.89 381.80 C 358.34 372.99 364.96 358.37 364.01 343.95 C 363.52 333.39 358.83 323.11 351.27 315.73 C 341.78 305.55 327.19 300.71 313.46 302.83 M 669.20 302.73 C 663.33 304.15 657.22 305.54 652.34 309.31 C 644.81 314.90 638.12 322.17 634.96 331.15 C 632.25 337.99 632.10 345.49 632.75 352.72 C 633.76 360.05 637.27 366.73 641.14 372.92 C 645.45 377.64 649.89 382.64 655.91 385.20 C 664.14 389.71 673.86 392.00 683.16 389.91 C 690.14 389.30 696.59 386.12 702.37 382.31 C 712.17 376.02 717.98 365.05 720.42 353.92 C 720.82 348.45 721.01 342.88 720.17 337.44 C 717.43 326.40 711.05 315.88 701.33 309.67 C 692.23 302.77 680.25 301.30 669.20 302.73 M 328.55 652.68 C 321.14 655.05 314.74 660.39 311.33 667.41 C 307.79 674.00 308.04 681.77 308.65 689.01 C 310.09 696.23 313.75 702.91 318.55 708.46 C 321.46 711.91 325.37 714.29 328.68 717.33 C 334.56 721.36 339.38 726.73 345.48 730.47 C 353.18 735.11 360.05 741.10 368.21 744.97 C 393.98 760.52 422.78 770.62 452.30 776.20 C 457.95 776.49 463.33 778.63 469.03 778.39 C 473.96 779.37 478.96 779.53 483.98 779.45 C 490.55 779.24 497.07 780.97 503.64 780.00 C 510.46 778.87 517.45 780.10 524.24 778.82 C 532.42 777.79 540.64 776.88 548.74 775.32 C 558.39 772.84 568.35 771.44 577.67 767.78 C 582.68 765.86 587.94 764.68 592.93 762.72 C 600.36 759.11 608.02 755.99 615.45 752.38 C 621.84 748.76 628.35 745.34 634.67 741.60 C 643.11 735.76 651.96 730.46 659.87 723.89 C 667.75 717.53 676.03 711.41 682.21 703.27 C 690.61 690.90 691.72 672.34 681.03 660.94 C 675.22 653.99 665.87 650.88 657.00 651.30 C 650.78 651.14 644.14 652.10 639.15 656.11 C 630.60 662.92 622.84 670.74 613.66 676.75 C 603.65 684.14 592.93 690.65 581.54 695.69 C 572.42 700.97 562.18 703.76 552.29 707.19 C 544.50 708.73 536.95 711.46 529.04 712.33 C 497.01 717.01 463.56 714.72 433.15 703.20 C 423.12 700.72 414.36 695.15 405.10 690.81 C 397.17 686.26 389.23 681.65 382.06 675.94 C 372.51 669.77 364.76 661.31 355.68 654.56 C 347.36 650.52 337.36 650.40 328.55 652.68 Z" />
</g>
<g id="#0c0c0cff">
<path fill="#0c0c0c" opacity="1.00" d=" M 495.28 270.98 C 510.57 268.54 526.71 279.20 530.42 294.27 C 541.34 338.30 552.38 382.29 563.45 426.28 C 574.44 472.27 586.49 518.01 597.59 563.97 C 600.10 574.51 597.05 586.55 588.88 593.89 C 585.50 597.40 580.96 599.37 576.55 601.24 C 570.50 602.74 564.19 602.51 558.00 602.53 C 518.00 602.55 478.00 602.40 438.00 602.75 C 429.66 602.99 420.73 602.23 413.68 597.32 C 409.41 593.94 405.08 590.24 402.69 585.23 C 397.81 575.67 397.20 563.73 402.26 554.12 C 406.13 546.25 413.83 540.65 422.33 538.77 C 430.81 537.86 439.36 538.54 447.86 538.21 C 454.19 537.11 460.62 537.69 467.01 537.57 C 482.35 537.35 497.71 537.33 513.06 537.26 C 515.26 537.24 517.37 536.32 519.21 535.16 C 521.23 533.06 520.97 529.78 520.56 527.12 C 504.30 461.14 487.74 395.23 471.50 329.25 C 469.74 321.67 467.52 314.20 466.05 306.56 C 464.78 300.83 465.39 294.72 467.45 289.25 C 470.60 283.10 475.33 277.44 481.76 274.58 C 485.92 272.32 490.67 271.72 495.28 270.98 Z" />
<path fill="#0c0c0c" opacity="1.00" d=" M 313.46 302.83 C 327.19 300.71 341.78 305.55 351.27 315.73 C 358.83 323.11 363.52 333.39 364.01 343.95 C 364.96 358.37 358.34 372.99 346.89 381.80 C 343.05 384.57 338.76 386.64 334.42 388.48 C 327.12 391.41 319.07 390.97 311.40 390.34 C 302.31 388.22 293.57 383.65 287.29 376.64 C 276.77 365.51 272.54 348.53 277.29 333.88 C 280.57 324.91 285.84 316.30 293.88 310.87 C 299.45 306.32 306.50 304.13 313.46 302.83 Z" />
<path fill="#0c0c0c" opacity="1.00" d=" M 669.20 302.73 C 680.25 301.30 692.23 302.77 701.33 309.67 C 711.05 315.88 717.43 326.40 720.17 337.44 C 721.01 342.88 720.82 348.45 720.42 353.92 C 717.98 365.05 712.17 376.02 702.37 382.31 C 696.59 386.12 690.14 389.30 683.16 389.91 C 673.86 392.00 664.14 389.71 655.91 385.20 C 649.89 382.64 645.45 377.64 641.14 372.92 C 637.27 366.73 633.76 360.05 632.75 352.72 C 632.10 345.49 632.25 337.99 634.96 331.15 C 638.12 322.17 644.81 314.90 652.34 309.31 C 657.22 305.54 663.33 304.15 669.20 302.73 Z" />
<path fill="#0c0c0c" opacity="1.00" d=" M 328.55 652.68 C 337.36 650.40 347.36 650.52 355.68 654.56 C 364.76 661.31 372.51 669.77 382.06 675.94 C 389.23 681.65 397.17 686.26 405.10 690.81 C 414.36 695.15 423.12 700.72 433.15 703.20 C 463.56 714.72 497.01 717.01 529.04 712.33 C 536.95 711.46 544.50 708.73 552.29 707.19 C 562.18 703.76 572.42 700.97 581.54 695.69 C 592.93 690.65 603.65 684.14 613.66 676.75 C 622.84 670.74 630.60 662.92 639.15 656.11 C 644.14 652.10 650.78 651.14 657.00 651.30 C 665.87 650.88 675.22 653.99 681.03 660.94 C 691.72 672.34 690.61 690.90 682.21 703.27 C 676.03 711.41 667.75 717.53 659.87 723.89 C 651.96 730.46 643.11 735.76 634.67 741.60 C 628.35 745.34 621.84 748.76 615.45 752.38 C 608.02 755.99 600.36 759.11 592.93 762.72 C 587.94 764.68 582.68 765.86 577.67 767.78 C 568.35 771.44 558.39 772.84 548.74 775.32 C 540.64 776.88 532.42 777.79 524.24 778.82 C 517.45 780.10 510.46 778.87 503.64 780.00 C 497.07 780.97 490.55 779.24 483.98 779.45 C 478.96 779.53 473.96 779.37 469.03 778.39 C 463.33 778.63 457.95 776.49 452.30 776.20 C 422.78 770.62 393.98 760.52 368.21 744.97 C 360.05 741.10 353.18 735.11 345.48 730.47 C 339.38 726.73 334.56 721.36 328.68 717.33 C 325.37 714.29 321.46 711.91 318.55 708.46 C 313.75 702.91 310.09 696.23 308.65 689.01 C 308.04 681.77 307.79 674.00 311.33 667.41 C 314.74 660.39 321.14 655.05 328.55 652.68 Z" />
</g>
</svg>
